<?xml version="1.0" encoding="UTF-8"?>
<svg version="1.1" viewBox="0 0 400 400" xmlns="http://www.w3.org/2000/svg">
<path d="m204.27 40.213a161.32 164.42 0 0 0-161.32 164.42 161.32 164.42 0 0 0 37.396 104.94 122.71 111.45 0 0 1-0.15765-2.0004 122.71 111.45 0 0 1 1.2487-15.86 122.71 111.45 0 0 1 3.7216-15.538 122.71 111.45 0 0 1 6.1184-14.899 122.71 111.45 0 0 1 8.391-13.956 122.71 111.45 0 0 1 10.492-12.729 122.71 111.45 0 0 1 12.38-11.244 122.71 111.45 0 0 1 14.016-9.5292 122.71 111.45 0 0 1 15.366-7.6203 122.71 111.45 0 0 1 16.404-5.5571 122.71 111.45 0 0 1 17.107-3.3802 122.71 111.45 0 0 1 17.463-1.1342 122.71 111.45 0 0 1 5.8384 0.12654 122.71 111.45 0 0 1 5.8257 0.37772 122.71 111.45 0 0 1 5.7994 0.6299 122.71 111.45 0 0 1 5.7586 0.88014 122.71 111.45 0 0 1 5.707 1.1277 122.71 111.45 0 0 1 5.6417 1.3724 122.71 111.45 0 0 1 5.5629 1.6153 122.71 111.45 0 0 1 5.4714 1.8536 122.71 111.45 0 0 1 5.369 2.0882 122.71 111.45 0 0 1 5.253 2.3172 122.71 111.45 0 0 1 5.1261 2.5426 122.71 111.45 0 0 1 4.9875 2.7605 122.71 111.45 0 0 1 4.8362 2.9739 122.71 111.45 0 0 1 4.6758 3.178 122.71 111.45 0 0 1 4.5036 3.3774 122.71 111.45 0 0 1 4.3214 3.5686 122.71 111.45 0 0 1 4.1294 3.7506 122.71 111.45 0 0 1 3.9282 3.9251 122.71 111.45 0 0 1 3.7189 4.0904 122.71 111.45 0 0 1 3.4996 4.2456 122.71 111.45 0 0 1 3.2739 4.3934 122.71 111.45 0 0 1 3.0393 4.5291 122.71 111.45 0 0 1 2.7991 4.6556 122.71 111.45 0 0 1 2.5517 4.7711 122.71 111.45 0 0 1 2.2989 4.8764 122.71 111.45 0 0 1 2.0416 4.9697 122.71 111.45 0 0 1 1.7779 5.0528 122.71 111.45 0 0 1 1.5115 5.1239 122.71 111.45 0 0 1 1.2414 5.183 122.71 111.45 0 0 1 0.96869 5.231 122.71 111.45 0 0 1 0.69324 5.2671 122.71 111.45 0 0 1 0.41681 5.2901 122.71 111.45 0 0 1 0.13863 5.303 122.71 111.45 0 0 1-0.45672 5.8046 161.32 164.42 0 0 0 40.454-108.74 161.32 164.42 0 0 0-161.32-164.42z" fill="#2a7fff" stroke-width=".46912"/>
<ellipse cx="205.64" cy="115.42" rx="59.881" ry="58.974" fill="#06f" stroke-width="2.8545"/>
<path d="m-2416.7 215.69c-4.7621 0-8.5969 3.8332-8.5969 8.594v23.572c-23.898 1.8218-47.003 13.435-60.324 34.571-8.1742 11.026-12.573 23.767-13.749 36.811h-19.657c-4.7623 0-8.5939 3.8301-8.5939 8.5909 0 4.7606 3.8316 8.594 8.5939 8.594h19.913c3.7545 31.07 24.744 60.371 56.327 68.852 5.7588 2.0177 11.624 3.219 17.49 3.7018v17.352c0 4.7606 3.8348 8.594 8.5969 8.594 4.7625 0 8.5969-3.8332 8.5969-8.594v-17.991c35.398-5.3724 66.87-35.321 69.87-71.916h21.318c4.7621 0 8.5968-3.8332 8.5968-8.594s-3.8344-8.5909-8.5968-8.5909h-21.62c-1.6594-15.033-7.581-29.581-17.026-41.416-12.705-17.309-32.122-27.099-52.542-29.593v-23.945c0-4.7608-3.8344-8.594-8.5969-8.594zm-8.5969 50.062v13.026c-13.813 1.6995-26.918 8.7809-34.655 21.112-4.3191 5.8521-6.9234 12.486-8.0352 19.349h-14.409v-0.1464c0.2767-2.3841 0.7003-4.7522 1.276-7.0894 0.5759-2.3372 1.3035-4.6423 2.1888-6.9032 0.8857-2.2608 1.9295-4.4764 3.1355-6.6316 1.2059-2.1552 2.5753-4.2515 4.1121-6.2714 1.3763-2.1274 2.8838-4.1269 4.5092-6.0029 1.6251-1.876 3.3685-3.6287 5.2111-5.2522 1.8423-1.6235 3.7848-3.1193 5.8125-4.4893 2.0278-1.37 4.1382-2.614 6.3195-3.7293 2.181-1.1152 4.432-2.1008 6.7345-2.9602 2.3022-0.8594 4.6571-1.5918 7.0491-2.1942 2.3915-0.60243 4.8196-1.0746 7.2687-1.419 1.1525-0.16214 2.3107-0.29151 3.4712-0.3967zm17.193 0.57061c0.5013 0.0786 1.006 0.13927 1.5049 0.22885 2.4294 0.43625 4.8305 1.0042 7.1896 1.703 2.3587 0.69858 4.6762 1.5282 6.9329 2.4903 2.2567 0.96219 4.4536 2.057 6.5758 3.2838 2.1221 1.2268 4.1684 2.5848 6.1239 4.0772 1.9558 1.4926 3.82 3.1205 5.5778 4.8799 1.7574 1.7593 3.4092 3.6521 4.9364 5.6794 2.2213 2.7124 4.1947 5.6106 5.9072 8.6489 1.7123 3.0383 3.1638 6.2151 4.3351 9.488 1.1709 3.2729 2.0614 6.6421 2.6589 10.059 0.1368 0.79018 0.2577 1.5825 0.3632 2.3773h-13.985c-1.455-8.0681-4.8821-15.779-9.9797-22.196-6.9419-9.5004-17.145-15.319-28.141-17.585zm-17.193 23.56v21.536c-0.2321 0.1096-0.4729 0.1974-0.6989 0.31736-0.6215 0.33-1.2238 0.69942-1.8014 1.1048-0.5774 0.40539-1.1296 0.84713-1.6546 1.3276-0.5248 0.48045-1.0206 0.99817-1.4835 1.5534-0.4632 0.55514-0.8935 1.1466-1.2853 1.7762-0.4105 0.56038-0.7718 1.1438-1.099 1.7395h-24.087c0.076-0.35929 0.14-0.72025 0.229-1.0773 0.354-1.444 0.8018-2.8666 1.3462-4.2634 0.5448-1.3968 1.185-2.7671 1.9263-4.0986 0.742-1.3315 1.5857-2.6279 2.5308-3.8757 0.8463-1.3144 1.7727-2.5489 2.7722-3.7079 0.9996-1.1591 2.0723-2.241 3.2054-3.2441 1.1332-1.0031 2.3276-1.9278 3.5749-2.774 1.247-0.84641 2.5449-1.6152 3.8863-2.3041 1.3411-0.68905 2.7264-1.2971 4.1426-1.828 1.4158-0.53097 2.8641-0.98283 4.335-1.355 1.37-0.34667 2.7598-0.61876 4.161-0.82711zm17.193 0.93695c0.3908 0.10362 0.7849 0.19906 1.1722 0.31439 1.4509 0.4316 2.8769 0.94362 4.2648 1.5381 1.3879 0.59446 2.7397 1.2685 4.0449 2.0264 1.3052 0.75801 2.5613 1.5987 3.7641 2.5208 1.2031 0.92217 2.3508 1.9282 3.4315 3.0151 1.081 1.0869 2.0955 2.257 3.0346 3.5095 1.3663 1.6758 2.5827 3.4636 3.636 5.3407 1.0532 1.8771 1.9447 3.8404 2.665 5.8626 0.4993 1.4022 0.8841 2.8416 1.2152 4.2908h-20.381c-0.038-0.0739-0.07-0.15237-0.1078-0.22587-0.4878-0.89907-1.0491-1.7548-1.682-2.5574-0.4351-0.59994-0.9067-1.1609-1.4073-1.6815-0.5009-0.52061-1.0307-1.0019-1.5876-1.4435-0.5572-0.44173-1.1417-0.84249-1.7462-1.2055-0.1013-0.0607-0.21-0.10595-0.3149-0.16475zm-73.775 45.604h14.114c3.2782 17.985 15.805 34.416 34.155 39.365 2.7414 0.96483 5.5235 1.6209 8.3128 2.0111v11.371c-1.765-0.17606-3.5291-0.40325-5.2874-0.74776-2.4692-0.48379-4.9269-1.1376-7.3603-1.9684-2.4924-0.65211-4.9004-1.4649-7.2199-2.4231-2.3196-0.95826-4.5496-2.0609-6.6858-3.2959-2.1361-1.235-4.1784-2.6011-6.121-4.0833-1.9425-1.4823-3.7873-3.082-5.5257-4.7822-1.738-1.7002-3.3703-3.5008-4.8937-5.3895-1.523-1.8887-2.9364-3.8637-4.2342-5.9114-1.2979-2.0477-2.4796-4.1674-3.5412-6.3447-1.0619-2.1773-2.0025-4.4121-2.818-6.6896-0.815-2.2775-1.5055-4.6006-2.0637-6.949-0.3275-1.3788-0.5946-2.7677-0.8303-4.1626zm24.899 0h23.785c0.2258 0.44197 0.4444 0.88667 0.7022 1.3092 0.3696 0.60589 0.7719 1.1898 1.2056 1.7487 0.4342 0.55884 0.9004 1.093 1.3952 1.5961 0.4952 0.50308 1.0222 0.97436 1.5755 1.413 0.5534 0.43863 1.1348 0.84308 1.7431 1.2086 0.4077 0.24469 0.845 0.44448 1.2762 0.65307v21.155c-0.2671-0.0465-0.5377-0.0786-0.8061-0.13129-1.5182-0.2989-3.0305-0.7013-4.5274-1.2146-1.5329-0.4029-3.0152-0.90645-4.4419-1.4984-1.4266-0.59193-2.7983-1.2725-4.112-2.0356-1.3141-0.76301-2.5697-1.608-3.7641-2.5239-1.1948-0.91574-2.3289-1.9038-3.3981-2.9542-1.069-1.0504-2.0732-2.1627-3.0101-3.3295-0.9367-1.1669-1.8058-2.3879-2.604-3.653s-1.5237-2.5733-2.1766-3.9185-1.2327-2.728-1.7341-4.1352c-0.4317-1.2112-0.7933-2.4446-1.1081-3.6897zm55.788 0h20.402c0 0.0584-0.032 0.11911-0.035 0.17702-0.3565 1.4538-0.808 2.8791-1.3493 4.2665-0.541 1.3874-1.1739 2.7373-1.8837 4.0467-0.7098 1.3095-1.4969 2.5794-2.3597 3.7995-0.8629 1.2201-1.8001 2.3902-2.7996 3.5096s-2.0631 2.1879-3.1841 3.1953c-1.1207 1.0074-2.2968 1.9543-3.5227 2.8381-1.226 0.88394-2.5038 1.7045-3.8192 2.4537-1.3153 0.7491-2.6682 1.4266-4.057 2.0295-1.3892 0.60291-2.8122 1.1295-4.2589 1.5748 0 5e-3 -0.032 7e-3 -0.041 0.0125v-20.725c0.535-0.32404 1.0612-0.66342 1.5631-1.0376 0.5679-0.42339 1.1143-0.8756 1.6333-1.3581 0.5191-0.48247 1.0114-0.99579 1.4744-1.532 0.4631-0.53621 0.8981-1.0972 1.2976-1.6815 0.3447-0.50403 0.6509-1.0324 0.9432-1.5687zm31.499 0h13.735c-0.2544 1.8312-0.5692 3.6474-1.0075 5.4261-0.5797 2.3533-1.3151 4.6577-2.195 6.9032-0.8797 2.2456-1.9047 4.4328-3.0588 6.5522s-2.438 4.1715-3.8405 6.1463c-1.4025 1.9749-2.9232 3.8706-4.5486 5.6825-1.6255 1.8119-3.3555 3.5393-5.1778 5.1697-1.8222 1.6305-3.7368 3.1654-5.7301 4.596-1.9934 1.4307-4.0679 2.758-6.2066 3.9704-2.1388 1.2125-4.342 2.311-6.6003 3.2868-2.2583 0.97579-4.5715 1.8276-6.9236 2.5483-2.2523 0.69023-4.5418 1.2508-6.8567 1.6907v-11.533c19.008-4.6476 35.331-20.72 38.41-40.44z" fill="#fff" stroke-width="11.966"/>
<ellipse cx="205.68" cy="122.9" rx="59.881" ry="58.974" fill="#fff" stroke-width="2.8545"/>
<path d="m324.99 303.38a122.71 111.45 0 0 0 0.45672-5.8046 122.71 111.45 0 0 0-0.13863-5.303 122.71 111.45 0 0 0-0.41681-5.2901 122.71 111.45 0 0 0-0.69324-5.2671 122.71 111.45 0 0 0-0.96869-5.231 122.71 111.45 0 0 0-1.2414-5.183 122.71 111.45 0 0 0-1.5115-5.1239 122.71 111.45 0 0 0-1.7779-5.0528 122.71 111.45 0 0 0-2.0416-4.9697 122.71 111.45 0 0 0-2.2989-4.8764 122.71 111.45 0 0 0-2.5517-4.7711 122.71 111.45 0 0 0-2.7991-4.6556 122.71 111.45 0 0 0-3.0393-4.5291 122.71 111.45 0 0 0-3.2739-4.3934 122.71 111.45 0 0 0-3.4996-4.2456 122.71 111.45 0 0 0-3.7189-4.0904 122.71 111.45 0 0 0-3.9282-3.9251 122.71 111.45 0 0 0-4.1294-3.7506 122.71 111.45 0 0 0-4.3214-3.5686 122.71 111.45 0 0 0-4.5036-3.3774 122.71 111.45 0 0 0-4.6758-3.178 122.71 111.45 0 0 0-4.8362-2.9739 122.71 111.45 0 0 0-4.9875-2.7605 122.71 111.45 0 0 0-5.1261-2.5426 122.71 111.45 0 0 0-5.253-2.3172 122.71 111.45 0 0 0-5.369-2.0882 122.71 111.45 0 0 0-5.4714-1.8536 122.71 111.45 0 0 0-5.5629-1.6153 122.71 111.45 0 0 0-5.6417-1.3724 122.71 111.45 0 0 0-5.707-1.1277 122.71 111.45 0 0 0-5.7586-0.88014 122.71 111.45 0 0 0-5.7994-0.6299 122.71 111.45 0 0 0-5.8257-0.37772 122.71 111.45 0 0 0-5.8384-0.12654 122.71 111.45 0 0 0-17.463 1.1342 122.71 111.45 0 0 0-17.107 3.3802 122.71 111.45 0 0 0-16.404 5.5571 122.71 111.45 0 0 0-15.366 7.6203 122.71 111.45 0 0 0-14.016 9.5292 122.71 111.45 0 0 0-12.38 11.244 122.71 111.45 0 0 0-10.492 12.729 122.71 111.45 0 0 0-8.391 13.956 122.71 111.45 0 0 0-6.1184 14.899 122.71 111.45 0 0 0-3.7216 15.538 122.71 111.45 0 0 0-1.2487 15.86 122.71 111.45 0 0 0 0.15765 2.0004 161.32 164.42 0 0 0 123.93 59.483 161.32 164.42 0 0 0 120.87-55.679z" fill="#06f" stroke-width=".46912"/>
<path d="m325.14 313.38a122.71 111.45 0 0 0 0.45672-5.8046 122.71 111.45 0 0 0-0.13863-5.303 122.71 111.45 0 0 0-0.41681-5.2901 122.71 111.45 0 0 0-0.69324-5.2671 122.71 111.45 0 0 0-0.96869-5.231 122.71 111.45 0 0 0-1.2414-5.183 122.71 111.45 0 0 0-1.5115-5.1239 122.71 111.45 0 0 0-1.7779-5.0528 122.71 111.45 0 0 0-2.0416-4.9697 122.71 111.45 0 0 0-2.2989-4.8764 122.71 111.45 0 0 0-2.5517-4.7711 122.71 111.45 0 0 0-2.7991-4.6556 122.71 111.45 0 0 0-3.0393-4.5291 122.71 111.45 0 0 0-3.2739-4.3934 122.71 111.45 0 0 0-3.4996-4.2456 122.71 111.45 0 0 0-3.7189-4.0904 122.71 111.45 0 0 0-3.9282-3.9251 122.71 111.45 0 0 0-4.1294-3.7506 122.71 111.45 0 0 0-4.3214-3.5686 122.71 111.45 0 0 0-4.5036-3.3774 122.71 111.45 0 0 0-4.6758-3.178 122.71 111.45 0 0 0-4.8362-2.9739 122.71 111.45 0 0 0-4.9875-2.7605 122.71 111.45 0 0 0-5.1261-2.5426 122.71 111.45 0 0 0-5.253-2.3172 122.71 111.45 0 0 0-5.369-2.0882 122.71 111.45 0 0 0-5.4714-1.8536 122.71 111.45 0 0 0-5.5629-1.6153 122.71 111.45 0 0 0-5.6417-1.3724 122.71 111.45 0 0 0-5.707-1.1277 122.71 111.45 0 0 0-5.7586-0.88014 122.71 111.45 0 0 0-5.7994-0.6299 122.71 111.45 0 0 0-5.8257-0.37772 122.71 111.45 0 0 0-5.8384-0.12654 122.71 111.45 0 0 0-17.463 1.1342 122.71 111.45 0 0 0-17.107 3.3802 122.71 111.45 0 0 0-16.404 5.5571 122.71 111.45 0 0 0-15.366 7.6203 122.71 111.45 0 0 0-14.016 9.5292 122.71 111.45 0 0 0-12.38 11.244 122.71 111.45 0 0 0-10.492 12.729 122.71 111.45 0 0 0-8.391 13.956 122.71 111.45 0 0 0-6.1184 14.899 122.71 111.45 0 0 0-3.7216 15.538 122.71 111.45 0 0 0-1.2487 15.86 122.71 111.45 0 0 0 0.15765 2.0004 161.32 164.42 0 0 0 123.93 59.483 161.32 164.42 0 0 0 120.87-55.679z" fill="#fff" stroke-width=".46912"/>
</svg>
