<?xml version="1.0" encoding="UTF-8"?>
<svg width="210mm" height="297mm" version="1.1" viewBox="0 0 210 297" xmlns="http://www.w3.org/2000/svg">
<g>
<circle cx="105.56" cy="168.65" r="104.48" fill="#fff"/>
<path d="m169.76 109.81 11.962 14.636-89.738 59.903c-0.89105-2.7833-3.6797-10.487-11.331-15.915z" fill="#2a7fff"/>
<path d="m148.91 150.2 30.944-21.217c4.0552-3.3503 4.0664-2.4608 6.8237 1.7753l11.162 17.149c3.6201 5.1337 3.5374 4.7931-1.9524 5.5994l-9.5498 1.4026c-5.1218 0.76355-3.8801-0.50943-5.2984 4.98l-5.4536 21.107c-1.5287 6.143-5.5199 7.3672-9.3417 2.5104l-13.262-18.196c-2.3628-2.7863 1.2876-7.2549 4.0879-4.1137l9.2624 12.047c4.3473 6.371 3.9796 4.9464 5.8716-2.1056l4.7582-17.736c0.89539-5.4151 2.0366-4.8742 6.4678-5.2656l3.6593-0.32328c4.7691-0.16813 4.276-0.24264 1.6295-4.3478l-4.0038-6.2101c-2.2958-3.5729-1.2284-3.2246-4.4811-0.97657l-27.681 19.131c-4.1286 2.4107-6.8235-2.6368-3.6419-5.211z" fill="#2a7fff"/>
<circle cx="54.1" cy="199.47" r="37" fill="#2a7fff"/>
<path d="m18.276 208.48c-10.688-39.716 44.458-58.358 62.905-26.684 8.1506 15.507-0.29857 37.499-16.002 42.478-14.154 3.4775-31.128 0.823-36.67-10.096-7.2683-13.891 4.1526-23.229 10.884-19.147 9.0797 6.2165 26.219 8.9735 32.615-4.3209 4.7763-11.197-20.333-23.48-35.418-16.736-3.3781 1.8044-18.576 9.1411-18.314 34.506z" fill="#06f"/>
<path d="m17.024 204.25c-6.8504-52.172 44.736-57.863 63.098-26.684 8.1506 15.507-0.29857 37.499-16.002 42.478-14.154 3.4775-31.128 0.823-36.67-10.096-7.2683-13.891 4.1526-23.229 10.884-19.147 9.0797 6.2165 26.219 8.9735 32.615-4.3209 4.7763-11.197-20.333-23.48-35.418-16.736-3.3781 1.8044-18.769 9.1411-18.507 34.506z" fill="#fff"/>
</g>
</svg>
